<mxfile host="app.diagrams.net" modified="2023-08-10T14:52:00.037Z" agent="Mozilla/5.0 (Windows NT 10.0; Win64; x64) AppleWebKit/537.36 (KHTML, like Gecko) Chrome/115.0.0.0 Safari/537.36" etag="Sw4G8NMYxkMU9QRR2Vrd" version="21.6.7" type="github">
  <diagram name="Page-1" id="0783ab3e-0a74-02c8-0abd-f7b4e66b4bec">
    <mxGraphModel dx="1644" dy="874" grid="0" gridSize="10" guides="1" tooltips="1" connect="1" arrows="1" fold="1" page="1" pageScale="1" pageWidth="850" pageHeight="1100" background="none" math="0" shadow="0">
      <root>
        <mxCell id="0" />
        <mxCell id="1" parent="0" />
        <mxCell id="1c1d494c118603dd-1" value="突发事件舆情处置流程" style="swimlane;html=1;childLayout=stackLayout;startSize=20;rounded=0;shadow=0;comic=0;labelBackgroundColor=none;strokeWidth=1;fontFamily=Verdana;fontSize=14;align=center;" parent="1" vertex="1">
          <mxGeometry x="40" y="10" width="1770" height="980" as="geometry" />
        </mxCell>
        <mxCell id="oOQ63VLb-OkWk4r61rTC-32" style="edgeStyle=orthogonalEdgeStyle;rounded=0;orthogonalLoop=1;jettySize=auto;html=1;entryX=1;entryY=0.5;entryDx=0;entryDy=0;fontSize=14;spacing=0;" parent="1c1d494c118603dd-1" source="oOQ63VLb-OkWk4r61rTC-26" target="oOQ63VLb-OkWk4r61rTC-29" edge="1">
          <mxGeometry relative="1" as="geometry" />
        </mxCell>
        <mxCell id="oOQ63VLb-OkWk4r61rTC-48" value="5分钟内电话上报" style="edgeLabel;html=1;align=center;verticalAlign=middle;resizable=0;points=[];fontSize=14;spacing=0;" parent="oOQ63VLb-OkWk4r61rTC-32" vertex="1" connectable="0">
          <mxGeometry x="-0.3556" y="1" relative="1" as="geometry">
            <mxPoint x="-24" y="-1" as="offset" />
          </mxGeometry>
        </mxCell>
        <mxCell id="oOQ63VLb-OkWk4r61rTC-34" style="edgeStyle=orthogonalEdgeStyle;rounded=0;orthogonalLoop=1;jettySize=auto;html=1;exitX=0;exitY=0.5;exitDx=0;exitDy=0;entryX=1;entryY=0.5;entryDx=0;entryDy=0;fontSize=14;spacing=0;" parent="1c1d494c118603dd-1" source="oOQ63VLb-OkWk4r61rTC-30" target="oOQ63VLb-OkWk4r61rTC-31" edge="1">
          <mxGeometry relative="1" as="geometry" />
        </mxCell>
        <mxCell id="oOQ63VLb-OkWk4r61rTC-50" value="5分钟内电话上报" style="edgeLabel;html=1;align=center;verticalAlign=middle;resizable=0;points=[];fontSize=14;spacing=0;" parent="oOQ63VLb-OkWk4r61rTC-34" vertex="1" connectable="0">
          <mxGeometry x="-0.1948" relative="1" as="geometry">
            <mxPoint x="15" as="offset" />
          </mxGeometry>
        </mxCell>
        <mxCell id="Tv2FIY8ql31G6wODKrf9-86" value="" style="edgeStyle=orthogonalEdgeStyle;rounded=0;orthogonalLoop=1;jettySize=auto;html=1;fontSize=14;spacing=0;" edge="1" parent="1c1d494c118603dd-1" source="oOQ63VLb-OkWk4r61rTC-29" target="oOQ63VLb-OkWk4r61rTC-30">
          <mxGeometry relative="1" as="geometry" />
        </mxCell>
        <mxCell id="Tv2FIY8ql31G6wODKrf9-89" value="5分钟内电话上报" style="edgeLabel;html=1;align=center;verticalAlign=middle;resizable=0;points=[];fontSize=14;" vertex="1" connectable="0" parent="Tv2FIY8ql31G6wODKrf9-86">
          <mxGeometry x="-0.2218" y="-1" relative="1" as="geometry">
            <mxPoint x="15" y="1" as="offset" />
          </mxGeometry>
        </mxCell>
        <mxCell id="Tv2FIY8ql31G6wODKrf9-76" style="edgeStyle=orthogonalEdgeStyle;rounded=0;orthogonalLoop=1;jettySize=auto;html=1;entryX=1;entryY=0.5;entryDx=0;entryDy=0;fontSize=14;spacing=0;" edge="1" parent="1c1d494c118603dd-1" source="Tv2FIY8ql31G6wODKrf9-25" target="oOQ63VLb-OkWk4r61rTC-38">
          <mxGeometry relative="1" as="geometry" />
        </mxCell>
        <mxCell id="Tv2FIY8ql31G6wODKrf9-121" value="15分钟内以电话&lt;br style=&quot;border-color: var(--border-color); font-size: 14px;&quot;&gt;&lt;span style=&quot;border-color: var(--border-color); font-size: 14px;&quot;&gt;或微信的形式报告&lt;/span&gt;" style="edgeLabel;html=1;align=center;verticalAlign=middle;resizable=0;points=[];labelBackgroundColor=#FFFFFF;fontSize=14;" vertex="1" connectable="0" parent="Tv2FIY8ql31G6wODKrf9-76">
          <mxGeometry x="-0.1421" y="-1" relative="1" as="geometry">
            <mxPoint x="30" y="1" as="offset" />
          </mxGeometry>
        </mxCell>
        <mxCell id="Tv2FIY8ql31G6wODKrf9-27" style="edgeStyle=orthogonalEdgeStyle;rounded=0;orthogonalLoop=1;jettySize=auto;html=1;entryX=1;entryY=0.5;entryDx=0;entryDy=0;fontSize=14;spacing=0;" edge="1" parent="1c1d494c118603dd-1" source="oOQ63VLb-OkWk4r61rTC-43" target="Tv2FIY8ql31G6wODKrf9-25">
          <mxGeometry relative="1" as="geometry" />
        </mxCell>
        <mxCell id="Tv2FIY8ql31G6wODKrf9-75" value="15分钟内以电话&lt;br style=&quot;font-size: 14px;&quot;&gt;或微信的形式报告" style="edgeLabel;html=1;align=center;verticalAlign=middle;resizable=0;points=[];fontSize=14;spacing=0;" vertex="1" connectable="0" parent="Tv2FIY8ql31G6wODKrf9-27">
          <mxGeometry x="-0.1763" y="-1" relative="1" as="geometry">
            <mxPoint as="offset" />
          </mxGeometry>
        </mxCell>
        <mxCell id="Tv2FIY8ql31G6wODKrf9-114" value="" style="edgeStyle=orthogonalEdgeStyle;rounded=0;orthogonalLoop=1;jettySize=auto;html=1;" edge="1" parent="1c1d494c118603dd-1" source="oOQ63VLb-OkWk4r61rTC-38" target="Tv2FIY8ql31G6wODKrf9-28">
          <mxGeometry relative="1" as="geometry">
            <mxPoint x="619.5" y="609.9999999999998" as="targetPoint" />
            <mxPoint x="957.5" y="610" as="sourcePoint" />
          </mxGeometry>
        </mxCell>
        <mxCell id="Tv2FIY8ql31G6wODKrf9-115" value="30分钟内报送" style="edgeLabel;html=1;align=center;verticalAlign=middle;resizable=0;points=[];fontSize=14;" vertex="1" connectable="0" parent="Tv2FIY8ql31G6wODKrf9-114">
          <mxGeometry x="-0.3632" relative="1" as="geometry">
            <mxPoint x="-20" as="offset" />
          </mxGeometry>
        </mxCell>
        <mxCell id="1c1d494c118603dd-2" value="城市环境" style="swimlane;html=1;startSize=20;fontSize=14;" parent="1c1d494c118603dd-1" vertex="1">
          <mxGeometry y="20" width="390" height="960" as="geometry" />
        </mxCell>
        <mxCell id="oOQ63VLb-OkWk4r61rTC-39" style="edgeStyle=orthogonalEdgeStyle;rounded=0;orthogonalLoop=1;jettySize=auto;html=1;entryX=0.5;entryY=0;entryDx=0;entryDy=0;exitX=0.5;exitY=1;exitDx=0;exitDy=0;fontSize=14;spacing=0;" parent="1c1d494c118603dd-2" target="oOQ63VLb-OkWk4r61rTC-35" edge="1">
          <mxGeometry relative="1" as="geometry">
            <Array as="points">
              <mxPoint x="195" y="390" />
              <mxPoint x="310" y="390" />
            </Array>
            <mxPoint x="195" y="270" as="sourcePoint" />
            <mxPoint x="310" y="390" as="targetPoint" />
          </mxGeometry>
        </mxCell>
        <mxCell id="oOQ63VLb-OkWk4r61rTC-55" value="是" style="edgeLabel;html=1;align=center;verticalAlign=middle;resizable=0;points=[];fontSize=14;spacing=0;" parent="oOQ63VLb-OkWk4r61rTC-39" vertex="1" connectable="0">
          <mxGeometry x="0.4645" y="2" relative="1" as="geometry">
            <mxPoint x="-30" y="-4" as="offset" />
          </mxGeometry>
        </mxCell>
        <mxCell id="oOQ63VLb-OkWk4r61rTC-31" value="初步研判舆情监趋势&lt;br&gt;并拟定处置方向" style="rounded=1;whiteSpace=wrap;html=1;shadow=0;comic=0;labelBackgroundColor=none;strokeWidth=1;fontFamily=Verdana;fontSize=14;align=center;arcSize=50;spacing=0;" parent="1c1d494c118603dd-2" vertex="1">
          <mxGeometry x="100" y="270" width="190" height="50" as="geometry" />
        </mxCell>
        <mxCell id="Tv2FIY8ql31G6wODKrf9-119" style="edgeStyle=orthogonalEdgeStyle;rounded=0;orthogonalLoop=1;jettySize=auto;html=1;" edge="1" parent="1c1d494c118603dd-2" source="oOQ63VLb-OkWk4r61rTC-35">
          <mxGeometry relative="1" as="geometry">
            <mxPoint x="201.27" y="463.27999999999975" as="targetPoint" />
          </mxGeometry>
        </mxCell>
        <mxCell id="oOQ63VLb-OkWk4r61rTC-35" value="成立应急指挥部驻扎项目现场指挥" style="rounded=1;whiteSpace=wrap;html=1;shadow=0;comic=0;labelBackgroundColor=none;strokeWidth=1;fontFamily=Verdana;fontSize=14;align=center;arcSize=50;spacing=0;" parent="1c1d494c118603dd-2" vertex="1">
          <mxGeometry x="253.77" y="438.28" width="115" height="50" as="geometry" />
        </mxCell>
        <mxCell id="Tv2FIY8ql31G6wODKrf9-157" style="edgeStyle=orthogonalEdgeStyle;rounded=0;orthogonalLoop=1;jettySize=auto;html=1;exitX=0.5;exitY=1;exitDx=0;exitDy=0;entryX=0.5;entryY=0;entryDx=0;entryDy=0;" edge="1" parent="1c1d494c118603dd-2" source="Tv2FIY8ql31G6wODKrf9-28" target="Tv2FIY8ql31G6wODKrf9-156">
          <mxGeometry relative="1" as="geometry" />
        </mxCell>
        <mxCell id="Tv2FIY8ql31G6wODKrf9-28" value="形成意见并确定是否&lt;br style=&quot;border-color: var(--border-color);&quot;&gt;上报上级主管部门" style="rounded=1;whiteSpace=wrap;html=1;shadow=0;comic=0;labelBackgroundColor=none;strokeWidth=1;fontFamily=Verdana;fontSize=14;align=center;arcSize=50;spacing=0;" vertex="1" parent="1c1d494c118603dd-2">
          <mxGeometry x="121" y="535" width="149" height="50" as="geometry" />
        </mxCell>
        <mxCell id="oOQ63VLb-OkWk4r61rTC-53" style="edgeStyle=orthogonalEdgeStyle;rounded=0;orthogonalLoop=1;jettySize=auto;html=1;entryX=0.5;entryY=0;entryDx=0;entryDy=0;fontSize=14;spacing=0;exitX=0.5;exitY=1;exitDx=0;exitDy=0;" parent="1c1d494c118603dd-2" source="oOQ63VLb-OkWk4r61rTC-31" target="Tv2FIY8ql31G6wODKrf9-28" edge="1">
          <mxGeometry relative="1" as="geometry">
            <mxPoint x="125" y="667" as="targetPoint" />
            <Array as="points">
              <mxPoint x="195" y="390" />
              <mxPoint x="195" y="390" />
            </Array>
          </mxGeometry>
        </mxCell>
        <mxCell id="oOQ63VLb-OkWk4r61rTC-54" value="是否为重大突发事件？" style="edgeLabel;html=1;align=center;verticalAlign=middle;resizable=0;points=[];fontSize=14;spacing=0;" parent="oOQ63VLb-OkWk4r61rTC-53" vertex="1" connectable="0">
          <mxGeometry x="-0.7784" y="2" relative="1" as="geometry">
            <mxPoint y="6" as="offset" />
          </mxGeometry>
        </mxCell>
        <mxCell id="oOQ63VLb-OkWk4r61rTC-56" value="否" style="edgeLabel;html=1;align=center;verticalAlign=middle;resizable=0;points=[];fontSize=14;spacing=0;" parent="oOQ63VLb-OkWk4r61rTC-53" vertex="1" connectable="0">
          <mxGeometry x="0.18" y="1" relative="1" as="geometry">
            <mxPoint x="-2" y="-20" as="offset" />
          </mxGeometry>
        </mxCell>
        <mxCell id="Tv2FIY8ql31G6wODKrf9-156" value="确定舆情回应主体人、时间、地点、内容" style="rounded=1;whiteSpace=wrap;html=1;shadow=0;comic=0;labelBackgroundColor=none;strokeWidth=1;fontFamily=Verdana;fontSize=14;align=center;arcSize=50;spacing=0;" vertex="1" parent="1c1d494c118603dd-2">
          <mxGeometry x="123.5" y="726" width="143" height="50" as="geometry" />
        </mxCell>
        <mxCell id="1c1d494c118603dd-3" value="子公司" style="swimlane;html=1;startSize=20;fontSize=14;" parent="1c1d494c118603dd-1" vertex="1">
          <mxGeometry x="390" y="20" width="410" height="960" as="geometry" />
        </mxCell>
        <mxCell id="Tv2FIY8ql31G6wODKrf9-10" style="edgeStyle=orthogonalEdgeStyle;rounded=0;orthogonalLoop=1;jettySize=auto;html=1;entryX=0.5;entryY=0;entryDx=0;entryDy=0;fontSize=14;spacing=0;" edge="1" parent="1c1d494c118603dd-3" source="oOQ63VLb-OkWk4r61rTC-30" target="oOQ63VLb-OkWk4r61rTC-38">
          <mxGeometry relative="1" as="geometry" />
        </mxCell>
        <mxCell id="Tv2FIY8ql31G6wODKrf9-92" value="是否涉及安全、质量、劳资等问题" style="edgeLabel;html=1;align=center;verticalAlign=middle;resizable=0;points=[];fontSize=14;" vertex="1" connectable="0" parent="Tv2FIY8ql31G6wODKrf9-10">
          <mxGeometry x="-0.7309" y="-3" relative="1" as="geometry">
            <mxPoint as="offset" />
          </mxGeometry>
        </mxCell>
        <mxCell id="Tv2FIY8ql31G6wODKrf9-94" value="否" style="edgeLabel;html=1;align=center;verticalAlign=middle;resizable=0;points=[];" vertex="1" connectable="0" parent="Tv2FIY8ql31G6wODKrf9-10">
          <mxGeometry x="0.2327" relative="1" as="geometry">
            <mxPoint x="2" y="-29" as="offset" />
          </mxGeometry>
        </mxCell>
        <mxCell id="Tv2FIY8ql31G6wODKrf9-91" style="edgeStyle=orthogonalEdgeStyle;rounded=0;orthogonalLoop=1;jettySize=auto;html=1;" edge="1" parent="1c1d494c118603dd-3">
          <mxGeometry relative="1" as="geometry">
            <mxPoint x="196.27" y="378.28" as="sourcePoint" />
            <mxPoint x="311.27" y="438.28" as="targetPoint" />
          </mxGeometry>
        </mxCell>
        <mxCell id="Tv2FIY8ql31G6wODKrf9-93" value="是" style="edgeLabel;html=1;align=center;verticalAlign=middle;resizable=0;points=[];" vertex="1" connectable="0" parent="Tv2FIY8ql31G6wODKrf9-91">
          <mxGeometry x="-0.2915" y="1" relative="1" as="geometry">
            <mxPoint as="offset" />
          </mxGeometry>
        </mxCell>
        <mxCell id="oOQ63VLb-OkWk4r61rTC-30" value="上报上级并通知&lt;br style=&quot;border-color: var(--border-color);&quot;&gt;应急处置小组组员" style="rounded=1;whiteSpace=wrap;html=1;shadow=0;comic=0;labelBackgroundColor=none;strokeWidth=1;fontFamily=Verdana;fontSize=14;align=center;arcSize=50;spacing=0;" parent="1c1d494c118603dd-3" vertex="1">
          <mxGeometry x="110" y="270" width="170" height="50" as="geometry" />
        </mxCell>
        <mxCell id="Tv2FIY8ql31G6wODKrf9-103" style="edgeStyle=orthogonalEdgeStyle;rounded=0;orthogonalLoop=1;jettySize=auto;html=1;" edge="1" parent="1c1d494c118603dd-3" source="oOQ63VLb-OkWk4r61rTC-38" target="Tv2FIY8ql31G6wODKrf9-101">
          <mxGeometry relative="1" as="geometry" />
        </mxCell>
        <mxCell id="oOQ63VLb-OkWk4r61rTC-38" value="形成书面详细报告" style="rounded=1;whiteSpace=wrap;html=1;shadow=0;comic=0;labelBackgroundColor=none;strokeWidth=1;fontFamily=Verdana;fontSize=14;align=center;arcSize=50;spacing=0;" parent="1c1d494c118603dd-3" vertex="1">
          <mxGeometry x="137" y="535" width="115" height="50" as="geometry" />
        </mxCell>
        <mxCell id="Tv2FIY8ql31G6wODKrf9-120" style="edgeStyle=orthogonalEdgeStyle;rounded=0;orthogonalLoop=1;jettySize=auto;html=1;" edge="1" parent="1c1d494c118603dd-3" source="Tv2FIY8ql31G6wODKrf9-85">
          <mxGeometry relative="1" as="geometry">
            <mxPoint x="201.27" y="463.28" as="targetPoint" />
          </mxGeometry>
        </mxCell>
        <mxCell id="Tv2FIY8ql31G6wODKrf9-85" value="同步通报子公司相关主管部门" style="rounded=1;whiteSpace=wrap;html=1;shadow=0;comic=0;labelBackgroundColor=none;strokeWidth=1;fontFamily=Verdana;fontSize=14;align=center;arcSize=50;spacing=0;" vertex="1" parent="1c1d494c118603dd-3">
          <mxGeometry x="253.77" y="438.28" width="115" height="50" as="geometry" />
        </mxCell>
        <mxCell id="Tv2FIY8ql31G6wODKrf9-154" style="edgeStyle=orthogonalEdgeStyle;rounded=0;orthogonalLoop=1;jettySize=auto;html=1;" edge="1" parent="1c1d494c118603dd-3" source="Tv2FIY8ql31G6wODKrf9-101">
          <mxGeometry relative="1" as="geometry">
            <mxPoint x="489" y="751" as="targetPoint" />
          </mxGeometry>
        </mxCell>
        <mxCell id="Tv2FIY8ql31G6wODKrf9-166" value="传达舆情回应具体安排" style="edgeLabel;html=1;align=center;verticalAlign=middle;resizable=0;points=[];" vertex="1" connectable="0" parent="Tv2FIY8ql31G6wODKrf9-154">
          <mxGeometry x="-0.3023" y="-3" relative="1" as="geometry">
            <mxPoint x="30" y="-3" as="offset" />
          </mxGeometry>
        </mxCell>
        <mxCell id="Tv2FIY8ql31G6wODKrf9-101" value="拟定新闻通稿/采访稿" style="rounded=1;whiteSpace=wrap;html=1;shadow=0;comic=0;labelBackgroundColor=none;strokeWidth=1;fontFamily=Verdana;fontSize=14;align=center;arcSize=50;spacing=0;" vertex="1" parent="1c1d494c118603dd-3">
          <mxGeometry x="108.5" y="726" width="172" height="50" as="geometry" />
        </mxCell>
        <mxCell id="Tv2FIY8ql31G6wODKrf9-159" style="edgeStyle=orthogonalEdgeStyle;rounded=0;orthogonalLoop=1;jettySize=auto;html=1;exitX=0;exitY=0.75;exitDx=0;exitDy=0;entryX=1;entryY=0.75;entryDx=0;entryDy=0;" edge="1" parent="1c1d494c118603dd-3">
          <mxGeometry relative="1" as="geometry">
            <mxPoint x="108.5" y="742" as="sourcePoint" />
            <mxPoint x="-123.5" y="742" as="targetPoint" />
          </mxGeometry>
        </mxCell>
        <mxCell id="Tv2FIY8ql31G6wODKrf9-160" value="1小时内报送" style="edgeLabel;html=1;align=center;verticalAlign=middle;resizable=0;points=[];" vertex="1" connectable="0" parent="Tv2FIY8ql31G6wODKrf9-159">
          <mxGeometry x="0.1362" y="1" relative="1" as="geometry">
            <mxPoint x="65" y="-1" as="offset" />
          </mxGeometry>
        </mxCell>
        <mxCell id="Tv2FIY8ql31G6wODKrf9-164" style="edgeStyle=orthogonalEdgeStyle;rounded=0;orthogonalLoop=1;jettySize=auto;html=1;exitX=1;exitY=0.5;exitDx=0;exitDy=0;entryX=0;entryY=0.5;entryDx=0;entryDy=0;" edge="1" parent="1c1d494c118603dd-3">
          <mxGeometry relative="1" as="geometry">
            <mxPoint x="-123.5" y="763" as="sourcePoint" />
            <mxPoint x="108.5" y="763" as="targetPoint" />
          </mxGeometry>
        </mxCell>
        <mxCell id="Tv2FIY8ql31G6wODKrf9-165" value="审核" style="edgeLabel;html=1;align=center;verticalAlign=middle;resizable=0;points=[];" vertex="1" connectable="0" parent="Tv2FIY8ql31G6wODKrf9-164">
          <mxGeometry x="0.2325" y="-5" relative="1" as="geometry">
            <mxPoint x="-101" y="-4" as="offset" />
          </mxGeometry>
        </mxCell>
        <mxCell id="1c1d494c118603dd-4" value="分公司" style="swimlane;html=1;startSize=20;fontSize=14;" parent="1c1d494c118603dd-1" vertex="1">
          <mxGeometry x="800" y="20" width="400" height="960" as="geometry">
            <mxRectangle x="500" y="20" width="40" height="970" as="alternateBounds" />
          </mxGeometry>
        </mxCell>
        <mxCell id="Tv2FIY8ql31G6wODKrf9-146" style="edgeStyle=orthogonalEdgeStyle;rounded=0;orthogonalLoop=1;jettySize=auto;html=1;entryX=0.5;entryY=0;entryDx=0;entryDy=0;" edge="1" parent="1c1d494c118603dd-4" source="oOQ63VLb-OkWk4r61rTC-29" target="Tv2FIY8ql31G6wODKrf9-145">
          <mxGeometry relative="1" as="geometry" />
        </mxCell>
        <mxCell id="oOQ63VLb-OkWk4r61rTC-29" value="上报上级并通知&lt;br&gt;应急处置小组组员" style="rounded=1;whiteSpace=wrap;html=1;shadow=0;comic=0;labelBackgroundColor=none;strokeWidth=1;fontFamily=Verdana;fontSize=14;align=center;arcSize=50;spacing=0;" parent="1c1d494c118603dd-4" vertex="1">
          <mxGeometry x="129" y="270" width="170.59" height="50" as="geometry" />
        </mxCell>
        <mxCell id="Tv2FIY8ql31G6wODKrf9-106" style="edgeStyle=orthogonalEdgeStyle;rounded=0;orthogonalLoop=1;jettySize=auto;html=1;exitX=0.5;exitY=1;exitDx=0;exitDy=0;entryX=0.5;entryY=0;entryDx=0;entryDy=0;" edge="1" parent="1c1d494c118603dd-4" source="Tv2FIY8ql31G6wODKrf9-25" target="Tv2FIY8ql31G6wODKrf9-104">
          <mxGeometry relative="1" as="geometry" />
        </mxCell>
        <mxCell id="Tv2FIY8ql31G6wODKrf9-25" value="评估事件发展趋势&lt;br style=&quot;border-color: var(--border-color);&quot;&gt;确定初步处置方案" style="rounded=1;whiteSpace=wrap;html=1;shadow=0;comic=0;labelBackgroundColor=none;strokeWidth=1;fontFamily=Verdana;fontSize=14;align=center;arcSize=50;spacing=0;" vertex="1" parent="1c1d494c118603dd-4">
          <mxGeometry x="156.8" y="535" width="115" height="50" as="geometry" />
        </mxCell>
        <mxCell id="Tv2FIY8ql31G6wODKrf9-169" style="edgeStyle=orthogonalEdgeStyle;rounded=0;orthogonalLoop=1;jettySize=auto;html=1;entryX=0.5;entryY=0;entryDx=0;entryDy=0;" edge="1" parent="1c1d494c118603dd-4" source="Tv2FIY8ql31G6wODKrf9-104" target="Tv2FIY8ql31G6wODKrf9-167">
          <mxGeometry relative="1" as="geometry" />
        </mxCell>
        <mxCell id="Tv2FIY8ql31G6wODKrf9-104" value="对接投诉人/伤者、社区、业主等外部机构与相关单位，做好安抚/沟通工作" style="rounded=1;whiteSpace=wrap;html=1;shadow=0;comic=0;labelBackgroundColor=none;strokeWidth=1;fontFamily=Verdana;fontSize=14;align=center;arcSize=50;spacing=0;" vertex="1" parent="1c1d494c118603dd-4">
          <mxGeometry x="83" y="643" width="261" height="50" as="geometry" />
        </mxCell>
        <mxCell id="Tv2FIY8ql31G6wODKrf9-122" style="edgeStyle=orthogonalEdgeStyle;rounded=0;orthogonalLoop=1;jettySize=auto;html=1;exitX=1;exitY=0.75;exitDx=0;exitDy=0;entryX=0.93;entryY=0.737;entryDx=0;entryDy=0;entryPerimeter=0;" edge="1" parent="1c1d494c118603dd-4" source="Tv2FIY8ql31G6wODKrf9-104" target="Tv2FIY8ql31G6wODKrf9-104">
          <mxGeometry relative="1" as="geometry" />
        </mxCell>
        <mxCell id="Tv2FIY8ql31G6wODKrf9-144" style="edgeStyle=orthogonalEdgeStyle;rounded=0;orthogonalLoop=1;jettySize=auto;html=1;entryX=0.5;entryY=0;entryDx=0;entryDy=0;exitX=0.5;exitY=1;exitDx=0;exitDy=0;" edge="1" parent="1c1d494c118603dd-4" source="Tv2FIY8ql31G6wODKrf9-145" target="Tv2FIY8ql31G6wODKrf9-25">
          <mxGeometry relative="1" as="geometry">
            <mxPoint x="303.42857142857156" y="454" as="sourcePoint" />
          </mxGeometry>
        </mxCell>
        <mxCell id="Tv2FIY8ql31G6wODKrf9-145" value="与街道、居委、社区进行沟通联络，收集民情信息，尽可能化解周边影响" style="rounded=1;whiteSpace=wrap;html=1;shadow=0;comic=0;labelBackgroundColor=none;strokeWidth=1;fontFamily=Verdana;fontSize=14;align=center;arcSize=50;spacing=0;" vertex="1" parent="1c1d494c118603dd-4">
          <mxGeometry x="85" y="407" width="258" height="50" as="geometry" />
        </mxCell>
        <mxCell id="Tv2FIY8ql31G6wODKrf9-167" value="分公司发言人回应媒体采访" style="rounded=1;whiteSpace=wrap;html=1;shadow=0;comic=0;labelBackgroundColor=none;strokeWidth=1;fontFamily=Verdana;fontSize=14;align=center;arcSize=50;spacing=0;" vertex="1" parent="1c1d494c118603dd-4">
          <mxGeometry x="83.5" y="726" width="261" height="50" as="geometry" />
        </mxCell>
        <mxCell id="oOQ63VLb-OkWk4r61rTC-21" value="项目部" style="swimlane;html=1;startSize=20;fontSize=14;" parent="1c1d494c118603dd-1" vertex="1">
          <mxGeometry x="1200" y="20" width="570" height="960" as="geometry">
            <mxRectangle x="500" y="20" width="40" height="970" as="alternateBounds" />
          </mxGeometry>
        </mxCell>
        <mxCell id="oOQ63VLb-OkWk4r61rTC-28" style="edgeStyle=orthogonalEdgeStyle;rounded=0;orthogonalLoop=1;jettySize=auto;html=1;entryX=0.5;entryY=0;entryDx=0;entryDy=0;fontSize=14;spacing=0;" parent="oOQ63VLb-OkWk4r61rTC-21" source="60571a20871a0731-4" target="oOQ63VLb-OkWk4r61rTC-26" edge="1">
          <mxGeometry relative="1" as="geometry" />
        </mxCell>
        <mxCell id="Tv2FIY8ql31G6wODKrf9-113" value="否" style="edgeLabel;html=1;align=center;verticalAlign=middle;resizable=0;points=[];" vertex="1" connectable="0" parent="oOQ63VLb-OkWk4r61rTC-28">
          <mxGeometry x="-0.1429" relative="1" as="geometry">
            <mxPoint as="offset" />
          </mxGeometry>
        </mxCell>
        <mxCell id="Tv2FIY8ql31G6wODKrf9-110" style="edgeStyle=orthogonalEdgeStyle;rounded=0;orthogonalLoop=1;jettySize=auto;html=1;entryX=0.5;entryY=0;entryDx=0;entryDy=0;" edge="1" parent="oOQ63VLb-OkWk4r61rTC-21" source="60571a20871a0731-4" target="Tv2FIY8ql31G6wODKrf9-108">
          <mxGeometry relative="1" as="geometry">
            <Array as="points">
              <mxPoint x="418" y="140" />
              <mxPoint x="250" y="140" />
            </Array>
          </mxGeometry>
        </mxCell>
        <mxCell id="Tv2FIY8ql31G6wODKrf9-111" value="&lt;font style=&quot;font-size: 14px;&quot;&gt;媒体是否已经联络、取材？&lt;/font&gt;" style="edgeLabel;html=1;align=center;verticalAlign=middle;resizable=0;points=[];" vertex="1" connectable="0" parent="Tv2FIY8ql31G6wODKrf9-110">
          <mxGeometry x="-0.8397" y="3" relative="1" as="geometry">
            <mxPoint as="offset" />
          </mxGeometry>
        </mxCell>
        <mxCell id="Tv2FIY8ql31G6wODKrf9-112" value="是" style="edgeLabel;html=1;align=center;verticalAlign=middle;resizable=0;points=[];" vertex="1" connectable="0" parent="Tv2FIY8ql31G6wODKrf9-110">
          <mxGeometry x="0.057" y="1" relative="1" as="geometry">
            <mxPoint as="offset" />
          </mxGeometry>
        </mxCell>
        <mxCell id="60571a20871a0731-4" value="&lt;font color=&quot;#fbfff7&quot; style=&quot;font-size: 14px;&quot;&gt;突发事件&lt;br&gt;发生&lt;/font&gt;" style="ellipse;whiteSpace=wrap;html=1;rounded=0;shadow=0;comic=0;labelBackgroundColor=none;strokeWidth=1;fillColor=#000000;fontFamily=Verdana;fontSize=14;align=center;spacing=0;" parent="oOQ63VLb-OkWk4r61rTC-21" vertex="1">
          <mxGeometry x="380.59000000000003" y="20" width="75" height="70" as="geometry" />
        </mxCell>
        <mxCell id="oOQ63VLb-OkWk4r61rTC-2" style="edgeStyle=orthogonalEdgeStyle;rounded=0;orthogonalLoop=1;jettySize=auto;html=1;exitX=1;exitY=0.5;exitDx=0;exitDy=0;entryX=1;entryY=0;entryDx=0;entryDy=0;fontSize=14;spacing=0;" parent="oOQ63VLb-OkWk4r61rTC-21" source="60571a20871a0731-4" target="60571a20871a0731-4" edge="1">
          <mxGeometry relative="1" as="geometry" />
        </mxCell>
        <mxCell id="Tv2FIY8ql31G6wODKrf9-20" style="edgeStyle=orthogonalEdgeStyle;rounded=0;orthogonalLoop=1;jettySize=auto;html=1;entryX=0.5;entryY=0;entryDx=0;entryDy=0;fontSize=14;spacing=0;" edge="1" parent="oOQ63VLb-OkWk4r61rTC-21" source="oOQ63VLb-OkWk4r61rTC-26" target="oOQ63VLb-OkWk4r61rTC-43">
          <mxGeometry relative="1" as="geometry" />
        </mxCell>
        <mxCell id="Tv2FIY8ql31G6wODKrf9-152" style="edgeStyle=orthogonalEdgeStyle;rounded=0;orthogonalLoop=1;jettySize=auto;html=1;exitX=0.5;exitY=1;exitDx=0;exitDy=0;entryX=0.5;entryY=0;entryDx=0;entryDy=0;" edge="1" parent="oOQ63VLb-OkWk4r61rTC-21" source="oOQ63VLb-OkWk4r61rTC-26" target="Tv2FIY8ql31G6wODKrf9-151">
          <mxGeometry relative="1" as="geometry" />
        </mxCell>
        <mxCell id="oOQ63VLb-OkWk4r61rTC-26" value="项目经理以口头简报形式将情况上报" style="rounded=1;whiteSpace=wrap;html=1;shadow=0;comic=0;labelBackgroundColor=none;strokeWidth=1;fontFamily=Verdana;fontSize=14;align=center;arcSize=50;spacing=0;" parent="oOQ63VLb-OkWk4r61rTC-21" vertex="1">
          <mxGeometry x="338.09" y="270" width="160" height="50" as="geometry" />
        </mxCell>
        <mxCell id="oOQ63VLb-OkWk4r61rTC-43" value="排摸现场情况" style="rounded=1;whiteSpace=wrap;html=1;shadow=0;comic=0;labelBackgroundColor=none;strokeWidth=1;fontFamily=Verdana;fontSize=14;align=center;arcSize=50;spacing=0;" parent="oOQ63VLb-OkWk4r61rTC-21" vertex="1">
          <mxGeometry x="271" y="535" width="115" height="50" as="geometry" />
        </mxCell>
        <mxCell id="Tv2FIY8ql31G6wODKrf9-150" style="edgeStyle=orthogonalEdgeStyle;rounded=0;orthogonalLoop=1;jettySize=auto;html=1;" edge="1" parent="oOQ63VLb-OkWk4r61rTC-21" source="Tv2FIY8ql31G6wODKrf9-108">
          <mxGeometry relative="1" as="geometry">
            <mxPoint x="410.800048828125" y="215" as="targetPoint" />
          </mxGeometry>
        </mxCell>
        <mxCell id="Tv2FIY8ql31G6wODKrf9-108" value="由项目经理或委派人员对接" style="rounded=1;whiteSpace=wrap;html=1;shadow=0;comic=0;labelBackgroundColor=none;strokeWidth=1;fontFamily=Verdana;fontSize=14;align=center;arcSize=50;spacing=0;" vertex="1" parent="oOQ63VLb-OkWk4r61rTC-21">
          <mxGeometry x="190" y="190" width="120" height="50" as="geometry" />
        </mxCell>
        <mxCell id="Tv2FIY8ql31G6wODKrf9-151" value="维持现场秩序&lt;br style=&quot;font-size: 14px;&quot;&gt;防范舆情扩散" style="rounded=1;whiteSpace=wrap;html=1;shadow=0;comic=0;labelBackgroundColor=none;strokeWidth=1;fontFamily=Verdana;fontSize=14;align=center;arcSize=50;spacing=0;" vertex="1" parent="oOQ63VLb-OkWk4r61rTC-21">
          <mxGeometry x="430.0000000000002" y="535" width="115" height="50" as="geometry" />
        </mxCell>
        <mxCell id="Tv2FIY8ql31G6wODKrf9-129" style="edgeStyle=orthogonalEdgeStyle;rounded=0;orthogonalLoop=1;jettySize=auto;html=1;entryX=0;entryY=0.75;entryDx=0;entryDy=0;" edge="1" parent="1c1d494c118603dd-1" source="oOQ63VLb-OkWk4r61rTC-31" target="oOQ63VLb-OkWk4r61rTC-30">
          <mxGeometry relative="1" as="geometry">
            <Array as="points">
              <mxPoint x="343" y="328" />
              <mxPoint x="343" y="328" />
            </Array>
          </mxGeometry>
        </mxCell>
        <mxCell id="Tv2FIY8ql31G6wODKrf9-130" value="传达处置指导意见" style="edgeLabel;html=1;align=center;verticalAlign=middle;resizable=0;points=[];fontSize=14;" vertex="1" connectable="0" parent="Tv2FIY8ql31G6wODKrf9-129">
          <mxGeometry x="0.1659" y="-4" relative="1" as="geometry">
            <mxPoint x="-57" y="-2" as="offset" />
          </mxGeometry>
        </mxCell>
        <mxCell id="Tv2FIY8ql31G6wODKrf9-135" style="edgeStyle=orthogonalEdgeStyle;rounded=0;orthogonalLoop=1;jettySize=auto;html=1;entryX=0;entryY=0.75;entryDx=0;entryDy=0;" edge="1" parent="1c1d494c118603dd-1" source="oOQ63VLb-OkWk4r61rTC-30" target="oOQ63VLb-OkWk4r61rTC-29">
          <mxGeometry relative="1" as="geometry">
            <Array as="points">
              <mxPoint x="745" y="328" />
              <mxPoint x="745" y="328" />
            </Array>
          </mxGeometry>
        </mxCell>
        <mxCell id="Tv2FIY8ql31G6wODKrf9-138" value="传达舆情管控核心利益点与现场处置要点" style="edgeLabel;html=1;align=center;verticalAlign=middle;resizable=0;points=[];" vertex="1" connectable="0" parent="Tv2FIY8ql31G6wODKrf9-135">
          <mxGeometry x="-0.536" y="2" relative="1" as="geometry">
            <mxPoint x="63" y="5" as="offset" />
          </mxGeometry>
        </mxCell>
        <mxCell id="Tv2FIY8ql31G6wODKrf9-139" style="edgeStyle=orthogonalEdgeStyle;rounded=0;orthogonalLoop=1;jettySize=auto;html=1;exitX=1;exitY=0.75;exitDx=0;exitDy=0;entryX=0;entryY=0.75;entryDx=0;entryDy=0;" edge="1" parent="1c1d494c118603dd-1" source="oOQ63VLb-OkWk4r61rTC-29" target="oOQ63VLb-OkWk4r61rTC-26">
          <mxGeometry relative="1" as="geometry" />
        </mxCell>
        <mxCell id="Tv2FIY8ql31G6wODKrf9-140" value="调配资源协助现场处置并提出具体安排" style="edgeLabel;html=1;align=center;verticalAlign=middle;resizable=0;points=[];fontSize=14;" vertex="1" connectable="0" parent="Tv2FIY8ql31G6wODKrf9-139">
          <mxGeometry x="-0.3922" y="-3" relative="1" as="geometry">
            <mxPoint x="79" as="offset" />
          </mxGeometry>
        </mxCell>
        <mxCell id="Tv2FIY8ql31G6wODKrf9-161" style="edgeStyle=orthogonalEdgeStyle;rounded=0;orthogonalLoop=1;jettySize=auto;html=1;exitX=1;exitY=0.75;exitDx=0;exitDy=0;entryX=0;entryY=0.75;entryDx=0;entryDy=0;" edge="1" parent="1c1d494c118603dd-1" source="Tv2FIY8ql31G6wODKrf9-28" target="oOQ63VLb-OkWk4r61rTC-38">
          <mxGeometry relative="1" as="geometry" />
        </mxCell>
        <mxCell id="Tv2FIY8ql31G6wODKrf9-163" value="明确事件对外信息发布主体与口径" style="edgeLabel;html=1;align=center;verticalAlign=middle;resizable=0;points=[];" vertex="1" connectable="0" parent="Tv2FIY8ql31G6wODKrf9-161">
          <mxGeometry x="-0.2974" y="-2" relative="1" as="geometry">
            <mxPoint x="14" as="offset" />
          </mxGeometry>
        </mxCell>
      </root>
    </mxGraphModel>
  </diagram>
</mxfile>
